<?xml version="1.0" standalone="no"?>
<!DOCTYPE svg PUBLIC "-//W3C//DTD SVG 20010904//EN"
 "http://www.w3.org/TR/2001/REC-SVG-20010904/DTD/svg10.dtd">
<svg version="1.0" xmlns="http://www.w3.org/2000/svg"
 width="880.000000pt" height="813.000000pt" viewBox="0 0 880.000000 813.000000"
 preserveAspectRatio="xMidYMid meet">
<metadata>
Created by potrace 1.16, written by Peter Selinger 2001-2019
</metadata>
<g transform="translate(0.000000,813.000000) scale(0.100000,-0.100000)"
fill="#000000" stroke="none">
<path d="M2400 8100 c-144 -27 -332 -123 -438 -224 -170 -161 -281 -518 -251
-810 27 -273 100 -488 300 -889 32 -66 59 -125 59 -132 0 -18 -90 -72 -134
-81 -25 -4 -43 -2 -60 9 -28 19 -96 119 -156 232 -109 203 -246 415 -327 505
-74 83 -240 160 -343 160 -55 0 -70 -12 -70 -58 0 -57 78 -163 219 -297 320
-306 342 -330 399 -448 49 -100 55 -127 32 -127 -5 0 -27 26 -49 59 -99 145
-353 362 -566 481 -150 84 -327 160 -374 160 -33 0 -61 -35 -61 -76 0 -57 61
-174 118 -225 38 -35 209 -158 302 -219 61 -40 332 -229 363 -253 21 -16 36
-32 33 -34 -5 -6 -69 31 -89 51 -30 31 -205 141 -309 195 -183 96 -397 171
-488 171 -143 0 -254 -76 -235 -160 10 -45 97 -83 335 -145 58 -15 116 -30
130 -35 14 -4 45 -13 70 -20 279 -77 325 -94 411 -151 66 -45 131 -116 127
-140 -2 -10 -95 -111 -208 -226 -459 -465 -703 -816 -923 -1323 -36 -82 -110
-279 -124 -330 -56 -203 -56 -211 -59 -745 -4 -776 -5 -727 21 -855 21 -104
51 -211 74 -265 5 -11 16 -36 25 -57 9 -20 16 -39 16 -43 0 -9 101 -210 147
-294 359 -644 870 -1058 1483 -1204 272 -64 364 -75 705 -82 212 -5 293 -15
450 -60 33 -9 76 -22 95 -27 88 -24 308 -59 435 -67 193 -14 1717 -15 1875 -2
166 14 262 32 400 78 41 14 80 29 85 33 6 5 47 14 92 21 63 9 97 10 152 1 167
-28 393 -5 596 59 33 11 83 27 110 35 299 94 629 256 870 428 215 153 445 386
585 591 218 318 376 741 430 1154 7 56 13 67 43 92 20 16 41 44 47 63 6 20 12
159 14 362 2 181 7 352 11 379 18 123 -48 450 -128 640 -39 91 -216 442 -279
552 -33 59 -72 128 -86 153 -14 25 -76 122 -138 215 -106 160 -153 220 -399
512 -125 148 -169 203 -173 214 -2 5 23 21 55 35 32 14 72 32 88 39 63 28 103
36 254 51 333 33 369 39 451 80 57 28 97 67 105 104 14 63 -48 133 -141 159
-68 19 -223 14 -300 -10 -62 -19 -318 -120 -432 -170 -26 -11 -56 -24 -67 -28
-11 -5 -58 -25 -103 -45 -111 -48 -120 -47 -90 5 52 93 179 182 348 244 41 15
84 31 95 35 11 5 65 25 120 45 131 48 161 62 215 98 96 64 190 173 190 220 0
91 -220 117 -405 48 -111 -42 -340 -203 -594 -419 -62 -53 -119 -98 -126 -100
-36 -9 -18 28 62 125 128 158 239 261 339 319 201 116 264 180 264 269 0 70
-20 88 -106 93 -71 5 -139 -15 -231 -65 -80 -44 -200 -174 -298 -323 -117
-178 -221 -316 -259 -344 -68 -51 -131 -37 -191 42 l-35 44 42 57 c261 359
417 732 458 1097 17 155 -10 307 -76 434 -43 82 -155 187 -245 231 -112 55
-120 57 -277 83 -321 53 -519 56 -792 10 -103 -17 -249 -52 -272 -65 -10 -5
-25 -9 -33 -9 -8 0 -23 -4 -33 -9 -9 -6 -42 -18 -72 -27 -92 -28 -324 -130
-456 -198 -148 -78 -281 -157 -441 -263 -65 -43 -131 -84 -147 -90 -63 -28
-156 -10 -216 42 -22 19 -434 281 -499 317 -159 89 -315 159 -466 208 -38 12
-79 26 -90 30 -50 20 -297 74 -390 85 -27 4 -61 9 -75 11 -51 10 -276 13 -320
4z m3772 -183 c-6 -7 -96 -73 -202 -147 -186 -132 -456 -325 -594 -425 -347
-252 -597 -534 -749 -848 -50 -101 -196 -317 -216 -317 -4 0 -29 30 -56 68
-48 65 -297 413 -427 596 -257 361 -473 628 -681 841 -75 77 -137 142 -137
144 0 4 38 -5 125 -30 70 -21 89 -27 135 -47 14 -6 50 -21 80 -33 182 -69 504
-262 800 -479 58 -43 117 -80 131 -83 34 -9 78 16 241 134 604 437 837 557
1198 619 128 22 368 27 352 7z m258 -287 c0 -5 -11 -35 -25 -66 -20 -46 -53
-85 -158 -189 -123 -122 -153 -161 -171 -222 -6 -19 -2 -23 36 -34 111 -29
193 9 520 244 58 42 111 77 117 77 18 0 12 -92 -9 -139 -13 -28 -72 -96 -163
-188 -78 -79 -147 -154 -154 -166 -7 -12 -12 -46 -13 -76 l0 -53 58 4 c66 5
94 22 312 191 126 98 133 98 123 7 -8 -62 -41 -125 -136 -258 -132 -184 -207
-295 -223 -331 -33 -78 -10 -116 79 -127 29 -4 46 -11 44 -18 -3 -6 -35 -61
-72 -121 -37 -61 -88 -143 -112 -182 -25 -40 -46 -73 -48 -73 -2 0 -63 47
-137 105 -217 172 -511 372 -668 457 -78 42 -116 56 -236 87 -109 29 -338 7
-512 -47 -34 -11 -64 -17 -67 -12 -2 4 16 40 40 79 25 40 45 75 45 77 0 18
175 230 255 309 93 92 275 234 301 235 7 0 8 -23 1 -76 -4 -42 -6 -78 -4 -80
6 -6 128 60 207 112 36 24 112 80 170 125 229 180 360 265 499 325 81 35 101
40 101 24z m-3949 -122 c76 -98 298 -375 315 -394 50 -54 108 -70 136 -36 31
36 41 78 27 119 -6 21 -19 58 -27 83 -8 25 -18 54 -22 65 -5 11 -13 34 -18 50
-6 17 -13 38 -17 48 -12 29 13 20 74 -27 74 -57 146 -135 304 -328 157 -193
270 -300 297 -283 6 3 17 23 25 42 17 41 12 67 -32 163 -38 82 -44 107 -28
120 8 7 19 9 25 5 6 -3 70 -90 144 -193 252 -355 290 -407 299 -413 23 -16
-25 -24 -203 -34 -372 -19 -640 -54 -777 -100 -91 -31 -256 -125 -323 -184
-58 -52 -108 -101 -157 -155 l-53 -57 -43 30 c-99 68 -179 178 -270 373 -49
104 -62 138 -52 138 3 0 36 -14 72 -30 37 -17 73 -28 79 -26 7 3 21 30 30 61
l18 56 -31 117 c-27 102 -71 259 -118 427 -8 28 -17 61 -21 75 l-7 25 26 -25
c13 -14 84 -95 157 -180 72 -85 138 -156 145 -158 12 -3 34 35 64 111 25 62
10 144 -49 272 -66 143 -84 221 -60 266 16 29 35 23 71 -23z m2758 -1107 c20
-5 63 -15 96 -22 253 -50 535 -199 739 -390 164 -153 350 -434 436 -659 11
-30 25 -64 30 -75 16 -33 67 -194 94 -296 24 -93 35 -146 57 -274 18 -107 19
-118 29 -300 11 -200 0 -471 -25 -645 -47 -321 -58 -363 -108 -397 -34 -24
-85 -33 -392 -69 -71 -8 -161 -19 -200 -25 -73 -9 -243 -30 -450 -54 -66 -7
-181 -21 -255 -30 -178 -22 -361 -43 -485 -55 -55 -6 -131 -14 -170 -20 -38
-5 -98 -12 -132 -15 l-63 -7 0 279 c0 558 21 2311 29 2423 6 87 14 127 32 165
50 107 409 418 534 463 38 13 156 15 204 3z m-1578 -51 c103 -11 123 -15 229
-52 150 -53 316 -181 369 -286 56 -110 59 -139 66 -552 5 -330 -6 -1083 -19
-1290 -3 -36 -8 -126 -11 -200 -3 -74 -11 -187 -16 -250 -17 -204 -40 -483
-46 -564 l-6 -79 -121 7 c-67 4 -139 9 -161 11 -22 3 -121 10 -220 15 -168 9
-392 22 -580 34 -44 3 -154 10 -245 15 -461 29 -751 56 -789 74 -35 17 -62 68
-73 140 -5 34 -15 105 -24 157 -32 206 -25 571 16 850 5 36 16 117 25 180 21
147 51 304 77 400 11 41 23 85 25 98 3 12 9 25 14 28 5 3 9 14 9 26 0 31 63
186 132 328 101 207 224 383 394 567 138 149 250 224 419 281 200 67 333 82
536 62z m3068 -581 c79 -88 142 -162 140 -163 -2 -2 -28 -18 -56 -36 -29 -17
-53 -34 -53 -36 0 -2 13 -32 28 -67 30 -65 91 -134 158 -178 218 -144 258
-176 305 -248 18 -29 20 -27 79 67 22 34 46 62 54 62 8 0 61 -50 118 -110 57
-61 113 -113 126 -117 13 -3 31 2 45 11 12 9 37 28 56 41 44 32 75 32 89 0 16
-34 15 -116 0 -183 l-13 -55 -85 8 c-249 24 -475 8 -663 -46 -40 -11 -88 -25
-107 -31 -19 -5 -48 -12 -65 -15 l-30 -5 -19 84 c-11 46 -23 87 -28 93 -4 5
-8 15 -8 23 0 13 -56 173 -79 227 -12 26 -51 126 -96 245 -20 52 -43 109 -50
125 -7 17 -23 55 -35 85 -12 30 -30 72 -40 92 -28 57 -34 118 -16 162 14 34
84 125 96 126 3 0 70 -72 149 -161z m-4399 85 c0 -9 -6 -30 -14 -47 -8 -18
-21 -50 -29 -72 -20 -54 -54 -128 -149 -325 -163 -338 -233 -533 -258 -716 -5
-44 -13 -98 -16 -120 l-6 -41 -62 31 c-117 61 -165 71 -331 70 -124 -1 -160
-4 -210 -22 -103 -35 -203 -80 -331 -146 -67 -35 -125 -61 -128 -58 -3 3 -6
53 -6 111 l0 106 192 120 c105 66 213 135 241 153 65 42 77 41 77 -5 0 -52 18
-113 33 -113 25 0 180 81 275 144 119 78 243 204 307 312 51 88 53 112 15 192
l-21 43 29 37 c17 20 49 77 73 126 46 94 112 177 161 202 30 15 94 31 136 33
14 1 22 -5 22 -15z m5329 -1198 c133 -51 215 -134 268 -276 17 -46 49 -199 57
-275 7 -69 -8 -282 -24 -337 -24 -81 -121 -167 -191 -168 -14 0 -41 -10 -60
-23 -36 -25 -39 -37 -28 -167 2 -25 1 -74 -1 -110 l-4 -65 48 -23 c49 -24 49
-24 75 -4 37 27 68 86 81 158 11 58 16 66 81 129 38 36 95 98 126 137 l57 71
52 -59 c35 -38 56 -56 62 -49 6 6 22 34 37 63 15 29 31 55 36 58 5 3 45 -18
89 -47 56 -36 88 -50 104 -47 20 4 25 0 29 -21 3 -14 10 -44 15 -66 27 -109
44 -206 39 -212 -4 -3 -37 4 -75 16 -109 34 -102 42 -102 -118 0 -76 4 -151 9
-167 5 -16 12 -52 15 -81 6 -46 4 -53 -14 -63 -18 -10 -25 -3 -72 70 -28 44
-56 80 -63 80 -22 0 -75 -72 -89 -120 -9 -30 -28 -213 -55 -510 -11 -118 -23
-229 -27 -246 -5 -26 -1 -38 22 -63 15 -17 32 -31 37 -31 6 0 25 12 44 26 19
14 37 23 40 20 4 -3 10 -30 14 -59 5 -28 15 -83 24 -122 18 -83 19 -119 4
-147 -14 -27 -69 -48 -123 -48 -36 0 -48 -5 -65 -27 -12 -14 -24 -38 -28 -52
-3 -14 -9 -30 -13 -36 -3 -5 -15 -32 -25 -60 -28 -76 -80 -178 -103 -198 -25
-23 -45 -14 -90 38 -17 19 -34 35 -37 35 -19 0 -147 -95 -191 -141 -64 -68
-284 -336 -284 -346 0 -5 23 -34 50 -66 90 -105 81 -138 -58 -209 -167 -84
-602 -240 -672 -241 -19 0 -59 12 -88 27 -29 15 -56 25 -60 22 -4 -2 -50 -16
-102 -30 -52 -14 -138 -37 -190 -51 -179 -49 -395 -103 -500 -124 -58 -12
-125 -25 -150 -31 -25 -5 -67 -12 -95 -15 -27 -4 -70 -10 -95 -15 -106 -21
-190 -30 -450 -51 -235 -18 -325 -20 -620 -15 -190 3 -374 8 -410 11 -36 3
-128 10 -205 15 -146 11 -260 24 -333 41 -23 5 -53 9 -67 9 -33 0 -316 55
-415 80 -211 55 -353 99 -498 154 -52 20 -103 36 -114 36 -11 0 -61 -21 -110
-47 l-89 -47 -52 12 c-139 33 -336 87 -519 144 l-96 30 -4 171 c-3 170 -3 173
-35 237 -99 200 -175 311 -289 421 -70 66 -179 138 -217 142 -24 2 -23 4 -32
-107 -8 -92 -11 -91 -75 24 -23 41 -56 90 -73 107 -43 46 -73 43 -135 -12 -48
-43 -72 -55 -72 -36 0 10 -33 82 -124 275 -44 92 -54 121 -45 132 18 22 27 18
84 -37 69 -66 100 -84 159 -93 l49 -8 -6 85 c-4 47 -10 92 -13 101 -5 12 0 16
16 16 37 0 106 61 146 128 41 70 75 102 109 102 44 0 60 34 60 129 0 126 -40
230 -96 250 -32 11 -86 -6 -135 -44 -19 -15 -36 -25 -37 -24 -6 9 -27 79 -42
139 -9 36 -21 73 -26 82 -5 10 -9 27 -9 38 0 32 -25 34 -79 5 -50 -28 -71 -27
-71 3 0 38 -44 222 -54 222 -5 0 -36 -21 -69 -46 -66 -53 -78 -50 -80 18 -2
35 5 54 28 88 56 81 125 108 290 113 61 2 117 7 126 11 22 10 61 -33 124 -136
59 -96 98 -123 188 -134 l57 -7 0 175 0 175 -39 11 c-21 7 -48 12 -60 12 -35
0 -145 55 -168 83 -54 69 -76 322 -39 462 56 215 215 414 411 513 116 59 149
66 295 67 143 0 184 -9 252 -52 21 -12 44 -33 53 -46 32 -49 70 -293 80 -512
6 -131 29 -341 44 -405 5 -19 18 -73 29 -120 29 -123 51 -202 61 -225 5 -11
14 -33 19 -50 35 -109 144 -322 239 -465 95 -143 271 -323 384 -393 221 -137
491 -201 767 -182 219 15 271 5 366 -69 22 -17 114 -78 204 -136 91 -58 167
-110 169 -116 9 -27 -190 -212 -311 -288 -259 -165 -527 -239 -856 -239 -373
0 -695 98 -1002 304 -104 71 -265 222 -342 322 -149 195 -251 448 -286 713
-19 137 -8 398 19 499 34 120 108 268 193 380 72 96 99 145 80 145 -22 0 -225
-31 -233 -35 -23 -15 -18 16 29 195 11 41 16 79 12 84 -11 11 -92 -20 -139
-55 -21 -15 -47 -46 -58 -70 -27 -59 -18 -131 31 -227 21 -43 36 -86 36 -108
0 -30 -26 -113 -60 -189 -32 -72 -58 -177 -89 -366 -29 -176 5 -445 81 -639
79 -201 183 -355 363 -536 213 -214 435 -365 680 -464 44 -17 89 -36 100 -41
42 -19 262 -69 359 -81 197 -25 494 -13 664 28 76 18 237 93 327 151 65 43
236 175 410 317 61 49 115 94 122 98 7 6 25 -3 50 -25 127 -113 355 -253 525
-321 51 -21 102 -42 113 -46 52 -22 166 -52 340 -89 152 -34 480 -54 659 -41
191 14 260 24 405 61 279 70 523 194 746 379 200 166 325 348 400 580 15 47
31 94 36 105 4 11 18 79 30 150 19 109 23 168 23 365 1 208 -2 248 -22 345
-13 61 -34 139 -46 175 -41 115 -46 135 -46 201 0 64 23 147 55 195 27 41 19
108 -19 168 -39 60 -108 121 -150 132 l-29 7 7 -117 8 -118 -80 7 c-47 4 -82
3 -86 -3 -5 -9 24 -90 65 -179 10 -24 19 -46 19 -49 0 -3 6 -20 14 -37 114
-259 168 -575 146 -848 -16 -197 -55 -337 -142 -516 -169 -348 -482 -607 -893
-738 -63 -20 -106 -30 -278 -65 -26 -6 -112 -14 -190 -20 -78 -6 -152 -13
-165 -15 -36 -8 -358 23 -457 44 -132 28 -188 42 -210 51 -11 4 -65 24 -120
45 -153 58 -246 116 -352 222 -96 94 -112 123 -68 123 13 0 34 4 47 9 13 5 41
14 63 21 92 27 203 92 306 179 58 49 116 92 129 96 13 4 78 2 144 -5 96 -10
148 -10 251 -1 124 11 280 42 317 62 10 5 23 9 29 9 6 0 25 6 42 14 18 8 63
29 102 46 198 88 447 308 588 520 78 118 177 315 217 430 12 36 26 74 30 85
19 47 30 83 40 125 58 243 70 359 61 585 -8 224 -4 321 15 379 67 204 217 344
429 400 44 11 280 -2 324 -18z m-1159 -1599 c0 -44 -42 -174 -84 -257 -108
-217 -308 -427 -509 -533 -167 -89 -275 -111 -517 -105 -211 6 -242 14 -470
127 -85 42 -173 84 -195 93 -109 43 -236 112 -259 139 -25 30 -26 34 -26 185
0 85 3 154 6 154 4 0 40 -31 80 -70 101 -96 188 -140 276 -140 26 0 50 5 53
10 3 6 14 10 24 10 33 0 141 78 156 113 17 39 56 82 93 101 37 19 98 35 222
57 58 11 159 30 225 44 242 51 283 58 445 80 96 12 231 22 323 24 l157 2 0
-34z m-3848 8 c162 -18 306 -41 478 -75 25 -5 70 -12 100 -15 117 -13 186 -51
296 -162 112 -113 166 -143 267 -143 79 0 146 28 193 82 108 122 163 155 213
129 41 -23 51 -61 51 -204 0 -173 1 -172 -215 -251 -55 -21 -156 -65 -225 -98
-69 -33 -150 -69 -180 -80 -30 -11 -64 -24 -75 -28 -102 -47 -384 -60 -525
-25 -185 45 -368 149 -524 296 -90 86 -224 250 -266 327 -8 15 -25 43 -36 62
-32 53 -68 160 -57 171 28 28 312 36 505 14z m1933 -770 c139 -46 205 -114
205 -212 0 -111 -80 -164 -353 -234 -91 -23 -105 -21 -342 57 -155 50 -215 97
-215 166 0 89 114 193 252 229 138 36 332 33 453 -6z"/>
</g>
</svg>
