<?xml version="1.0" standalone="no"?>
<!DOCTYPE svg PUBLIC "-//W3C//DTD SVG 20010904//EN"
 "http://www.w3.org/TR/2001/REC-SVG-20010904/DTD/svg10.dtd">
<svg version="1.0" xmlns="http://www.w3.org/2000/svg"
 width="400.000000pt" height="400.000000pt" viewBox="0 0 400.000000 400.000000"
 preserveAspectRatio="xMidYMid meet">
<metadata>
Created by potrace 1.11, written by Peter Selinger 2001-2013
</metadata>
<g transform="translate(0.000000,400.000000) scale(0.100000,-0.100000)"
fill="#000000" stroke="none">
<path d="M2558 3803 c7 -3 16 -2 19 1 4 3 -2 6 -13 5 -11 0 -14 -3 -6 -6z"/>
<path d="M1322 3785 c-92 -25 -135 -61 -164 -137 -26 -70 -32 -150 -18 -243 7
-44 13 -90 14 -102 0 -11 4 -19 7 -17 4 2 10 -13 14 -33 3 -20 13 -46 21 -59
8 -12 11 -25 6 -28 -4 -3 -15 5 -23 16 -8 12 -35 50 -62 85 -26 36 -45 69 -41
74 3 5 2 8 -3 7 -5 -2 -26 12 -48 31 -22 18 -33 30 -25 26 9 -5 12 -4 7 1 -5
5 -12 9 -15 9 -4 1 -16 6 -28 12 -41 23 -114 18 -114 -8 0 -13 70 -85 70 -73
0 5 5 1 11 -9 6 -9 14 -15 20 -12 5 4 9 1 9 -4 0 -6 6 -11 13 -11 16 0 127
-105 161 -153 24 -33 25 -38 10 -44 -11 -4 -36 14 -85 66 -38 40 -67 77 -64
82 3 5 0 6 -8 3 -9 -3 -36 11 -62 30 -25 20 -51 36 -56 36 -6 0 -7 5 -3 12 4
7 3 8 -4 4 -6 -4 -21 -2 -32 4 -35 19 -119 29 -130 16 -8 -11 -11 -60 -2 -51
3 3 30 -8 162 -67 67 -30 160 -91 160 -105 0 -7 6 -13 13 -13 18 0 71 -56 59
-63 -5 -4 -24 2 -43 13 -19 10 -53 29 -76 41 -23 12 -39 27 -36 32 3 6 1 7 -6
3 -14 -9 -53 2 -46 14 3 4 -5 6 -17 2 -16 -4 -19 -2 -13 8 5 8 4 11 -2 7 -5
-3 -41 -1 -79 4 -86 13 -138 2 -142 -29 -4 -25 6 -28 116 -37 82 -7 164 -26
225 -54 23 -10 50 -21 59 -24 25 -9 17 -29 -37 -91 -27 -32 -55 -66 -63 -77
-9 -13 -22 -19 -33 -16 -11 3 -19 2 -19 -1 0 -4 -21 -16 -48 -26 -26 -11 -52
-25 -58 -30 -6 -6 -21 -17 -32 -25 -12 -8 -19 -18 -17 -22 3 -4 -2 -12 -10
-19 -8 -7 -15 -19 -15 -26 0 -8 -4 -14 -9 -14 -4 0 -8 -38 -8 -84 0 -73 -4
-89 -29 -134 -15 -28 -31 -49 -34 -47 -3 2 -7 -6 -7 -17 -1 -12 -6 -24 -10
-27 -5 -3 -16 -24 -25 -46 -9 -22 -34 -80 -56 -130 -51 -118 -54 -126 -59
-150 -2 -11 -12 -45 -22 -75 -50 -146 -82 -364 -82 -557 1 -256 59 -475 175
-650 26 -40 45 -77 41 -83 -3 -5 0 -7 8 -4 17 6 49 -34 40 -49 -3 -6 -1 -7 6
-3 6 4 25 -8 45 -28 18 -20 38 -36 44 -36 6 0 18 -10 27 -22 8 -13 19 -23 23
-23 10 0 4 -14 -19 -46 l-19 -28 27 -26 c48 -45 86 -62 151 -69 117 -11 254
-79 375 -186 26 -23 47 -48 47 -56 0 -28 23 -12 103 69 141 144 323 268 456
312 116 38 329 3 471 -78 120 -68 221 -203 222 -297 0 -22 4 -40 7 -40 18 0
101 33 101 39 0 4 -10 12 -23 18 -24 11 -62 107 -50 127 3 6 3 8 -2 4 -7 -7
-34 19 -35 33 0 3 53 9 118 13 97 5 206 24 293 52 9 2 19 -2 22 -10 4 -10 -10
-25 -41 -45 -45 -29 -111 -87 -142 -126 -14 -17 -13 -18 5 -11 54 20 298 164
333 196 l22 21 -26 24 c-15 14 -24 26 -20 26 3 1 10 2 14 3 4 0 26 16 49 34
22 17 44 32 47 32 3 0 24 20 47 45 23 25 46 42 52 38 6 -3 7 -1 3 5 -4 7 -2
12 5 12 7 0 9 3 6 7 -10 9 14 34 26 26 6 -3 7 -1 3 5 -4 6 2 20 14 32 11 11
19 21 18 23 -1 1 10 20 23 42 24 39 89 183 90 197 0 4 7 27 15 50 8 24 22 77
30 118 17 84 33 426 22 480 -3 19 -16 94 -27 165 -22 138 -24 151 -40 203 -5
18 -9 33 -9 35 1 7 -27 97 -39 126 -9 19 -16 44 -17 56 0 13 -4 21 -8 18 -5
-2 -9 3 -9 11 -2 25 -4 29 -22 64 -10 17 -14 32 -10 32 5 0 4 4 -2 8 -5 4 -38
63 -72 132 -45 89 -63 139 -66 175 -6 67 -9 77 -29 96 -10 9 -18 21 -18 28 0
6 -7 11 -15 11 -8 0 -15 4 -15 8 0 4 -20 18 -44 29 -30 15 -58 42 -92 88 -27
37 -47 72 -46 79 2 6 1 8 -3 4 -10 -10 -56 34 -51 49 3 7 0 12 -6 10 -6 -1
-12 3 -14 8 -5 13 63 43 136 62 30 8 109 17 175 21 113 7 120 8 117 27 -2 11
-8 22 -13 23 -5 2 -7 7 -5 10 2 4 -24 8 -57 10 -52 2 -95 -3 -192 -23 -11 -3
-46 -18 -78 -35 -32 -17 -63 -27 -69 -24 -7 4 -8 2 -4 -4 4 -7 2 -13 -3 -13
-21 -3 -26 -4 -38 -12 -9 -6 -13 -1 -13 14 0 12 3 19 6 16 4 -4 14 1 23 11 49
53 151 107 309 164 72 26 83 33 80 52 -6 43 -128 31 -210 -20 -21 -13 -38 -22
-38 -19 0 7 -34 -21 -97 -79 -29 -27 -53 -46 -53 -42 0 4 -13 -7 -30 -24 -28
-29 -47 -40 -36 -21 4 5 1 11 -5 13 -23 8 129 143 215 193 60 35 88 57 93 74
8 30 -12 43 -57 34 -19 -4 -43 -7 -52 -7 -9 0 -14 -4 -12 -8 3 -4 1 -8 -4 -8
-17 0 -136 -116 -164 -160 -16 -25 -32 -45 -36 -45 -3 0 -7 -6 -9 -13 -2 -20
-10 -25 -23 -17 -8 5 -7 12 3 23 7 10 19 32 27 49 7 18 15 31 19 29 4 -3 7 3
8 12 1 9 14 51 29 92 32 89 36 202 8 244 -8 14 -12 31 -8 37 4 8 3 9 -4 5 -7
-4 -26 6 -44 23 -18 17 -45 36 -60 42 -15 6 -25 16 -21 22 3 5 1 7 -4 4 -10
-6 -59 5 -93 22 -15 7 -227 -3 -265 -12 -52 -13 -207 -81 -253 -112 -29 -19
-52 -32 -52 -29 0 3 -12 -7 -27 -21 -15 -14 -34 -25 -41 -25 -7 0 -11 -4 -7
-9 7 -12 -29 -33 -40 -23 -5 4 -6 0 -3 -9 4 -9 1 -16 -7 -16 -8 0 -13 4 -12 8
1 4 -2 9 -7 10 -5 2 -32 26 -60 53 -28 27 -52 48 -54 47 -3 -2 -85 51 -92 60
-9 11 -55 33 -63 31 -4 -1 -21 5 -38 14 -17 8 -41 18 -52 20 -135 29 -194 30
-275 9z m318 -102 c74 -27 185 -94 250 -150 84 -72 74 -70 127 -26 138 114
316 193 465 208 l63 6 -53 -30 c-154 -87 -340 -287 -450 -484 l-50 -88 -18 47
c-63 164 -265 426 -397 515 -68 45 -54 46 63 2z m-156 -105 c-3 -4 2 -17 10
-29 8 -12 12 -28 9 -37 -5 -11 -3 -13 7 -7 9 6 11 4 5 -5 -6 -10 -11 -9 -21 4
-7 10 -10 24 -7 32 3 8 -1 16 -9 19 -18 7 -19 32 -2 32 7 0 11 -4 8 -9z m1114
-10 c-2 -6 -12 -12 -21 -14 -9 -1 -15 2 -11 7 3 5 10 7 15 4 5 -4 9 -1 9 4 0
6 3 11 6 11 3 0 4 -5 2 -12z m-1044 -30 c-3 -5 -12 -4 -20 3 -7 6 -11 15 -8
21 3 5 12 4 20 -3 7 -6 11 -15 8 -21z m836 18 c0 -2 -8 -10 -17 -17 -16 -13
-17 -12 -4 4 13 16 21 21 21 13z m165 -26 c3 -6 -1 -7 -9 -4 -18 7 -20 0 -7
-25 7 -12 6 -18 -2 -18 -10 0 -16 40 -8 55 3 6 20 1 26 -8z m-1117 -61 c32
-39 23 -37 -19 7 -18 19 -27 32 -19 29 8 -4 25 -20 38 -36z m-163 1 c3 -5 1
-10 -4 -10 -6 0 -11 5 -11 10 0 6 2 10 4 10 3 0 8 -4 11 -10z m1213 -4 c-10
-7 -14 -17 -10 -21 4 -5 1 -5 -7 0 -12 7 -11 10 4 22 24 17 36 17 13 -1z m171
-31 c0 -5 -4 -3 -9 5 -5 8 -9 22 -9 30 0 16 17 -16 18 -35z m139 23 c-6 -13
-13 -29 -14 -36 -1 -8 -5 -17 -8 -20 -4 -3 -5 3 -3 14 3 22 25 64 33 64 2 0
-1 -10 -8 -22z m-188 -22 c0 -2 -8 -10 -17 -17 -16 -13 -17 -12 -4 4 13 16 21
21 21 13z m-1134 -18 c3 -4 -1 -5 -10 -4 -8 1 -18 5 -22 8 -3 4 1 5 10 4 8 -1
18 -5 22 -8z m814 6 c0 -8 -19 -13 -24 -6 -3 5 1 9 9 9 8 0 15 -2 15 -3z m89
-7 c-2 -1 -13 -9 -24 -17 -19 -14 -19 -14 -6 3 7 9 18 17 24 17 6 0 8 -1 6 -3z
m-1053 -29 c10 -13 12 -18 5 -11 -11 10 -17 9 -26 -4 -10 -14 -12 -13 -9 8 4
37 4 37 30 7z m1246 -10 c-6 -6 -19 -13 -27 -14 -13 -2 -14 1 -4 12 6 7 16 11
22 7 7 -4 8 0 3 13 -6 15 -5 17 5 7 10 -10 10 -16 1 -25z m164 4 c-17 -16 -18
-16 -5 5 7 12 15 20 18 17 3 -2 -3 -12 -13 -22z m-1291 -21 c-6 -5 -25 10 -25
20 0 5 6 4 14 -3 8 -7 12 -15 11 -17z m270 9 c-3 -5 -1 -10 6 -10 7 0 10 -3 6
-6 -9 -9 -28 6 -22 17 4 5 8 9 11 9 3 0 2 -4 -1 -10z m602 -17 c0 -9 -4 -10
-14 -2 -7 6 -13 12 -13 14 0 1 6 2 13 2 8 0 14 -6 14 -14z m283 8 c0 -6 -4
-12 -8 -15 -5 -3 -9 1 -9 9 0 8 4 15 9 15 4 0 8 -4 8 -9z m158 -22 c-3 -8 -7
-3 -11 10 -4 17 -3 21 5 13 5 -5 8 -16 6 -23z m-1217 4 c13 -16 12 -17 -3 -4
-10 7 -18 15 -18 17 0 8 8 3 21 -13z m53 9 c3 -5 -1 -9 -9 -9 -8 0 -12 4 -9 9
3 4 7 8 9 8 2 0 6 -4 9 -8z m678 -24 c-7 -7 -12 -8 -12 -2 0 14 12 26 19 19 2
-3 -1 -11 -7 -17z m409 -11 l-24 -22 19 27 c10 14 21 24 23 22 3 -3 -6 -15
-18 -27z m-481 19 c0 -3 -4 -8 -10 -11 -5 -3 -10 -1 -10 4 0 6 5 11 10 11 6 0
10 -2 10 -4z m544 -12 c3 -8 2 -12 -4 -9 -6 3 -10 10 -10 16 0 14 7 11 14 -7z
m-1237 -16 c-3 -8 -6 -5 -6 6 -1 11 2 17 5 13 3 -3 4 -12 1 -19z m317 6 c3 -8
2 -12 -4 -9 -6 3 -10 10 -10 16 0 14 7 11 14 -7z m806 12 c0 -2 -8 -10 -17
-17 -16 -13 -17 -12 -4 4 13 16 21 21 21 13z m-861 -20 c9 -11 9 -16 -1 -22
-7 -4 -10 -4 -6 1 4 4 3 14 -3 22 -6 7 -9 13 -6 13 2 0 10 -6 16 -14z m-386
-9 c3 -8 -1 -14 -8 -14 -7 0 -11 6 -8 14 3 7 6 13 8 13 2 0 5 -6 8 -13z m1322
4 c3 -5 2 -12 -3 -15 -5 -3 -9 1 -9 9 0 17 3 19 12 6z m-825 -41 c6 -11 8 -20
6 -20 -3 0 -10 9 -16 20 -6 11 -8 20 -6 20 3 0 10 -9 16 -20z m280 15 c0 -2
-6 -8 -13 -14 -10 -8 -14 -7 -14 2 0 8 6 14 14 14 7 0 13 -1 13 -2z m541 -48
c-10 -9 -11 -8 -5 6 3 10 9 15 12 12 3 -3 0 -11 -7 -18z m-276 -45 c-3 -3 -11
0 -18 7 -9 10 -8 11 6 5 10 -3 15 -9 12 -12z m-1109 -14 c10 -12 13 -18 7 -14
-8 4 -13 2 -13 -6 0 -8 -5 -6 -11 5 -6 9 -14 15 -20 12 -5 -4 -9 -2 -9 4 0 5
6 12 13 14 6 3 12 6 13 6 0 1 9 -9 20 -21z m224 12 c-12 -8 -12 -10 -1 -10 8
0 12 -3 8 -6 -9 -9 -28 6 -22 17 4 5 12 9 18 9 7 0 6 -4 -3 -10z m58 -3 c8
-10 6 -13 -11 -14 -12 0 -16 1 -8 4 11 5 11 7 0 14 -8 5 -9 9 -3 9 6 0 16 -6
22 -13z m842 -17 c-8 -5 -19 -10 -25 -10 -5 0 -3 5 5 10 8 5 20 10 25 10 6 0
3 -5 -5 -10z m235 -10 c-3 -5 -1 -10 6 -10 7 0 10 -3 6 -6 -9 -9 -28 6 -22 17
4 5 8 9 11 9 3 0 2 -4 -1 -10z m-803 -30 c29 -11 65 -31 80 -43 l27 -22 -6
-653 -6 -652 -26 0 c-33 -1 -109 -35 -139 -63 -22 -20 -33 -22 -145 -21 -107
0 -130 4 -190 27 -215 84 -336 254 -362 508 -25 241 99 580 278 762 162 165
329 218 489 157z m188 20 c0 -5 -5 -10 -11 -10 -5 0 -7 5 -4 10 3 6 8 10 11
10 2 0 4 -4 4 -10z m765 -41 c47 -49 48 -50 17 -34 -19 9 -36 14 -39 11 -3 -3
20 -35 51 -71 77 -91 138 -183 126 -190 -5 -3 -16 9 -24 27 -29 69 -135 183
-152 165 -4 -3 16 -37 43 -74 27 -37 58 -84 70 -103 l21 -35 -33 -25 c-18 -14
-41 -38 -50 -54 l-17 -28 -43 81 c-24 44 -60 101 -79 127 -20 25 -33 51 -30
55 3 5 0 8 -8 7 -7 -2 -12 3 -10 10 1 6 -3 11 -9 10 -27 -6 -16 22 27 72 26
30 53 65 61 77 9 13 18 23 22 23 4 0 29 -23 56 -51z m-484 25 c97 -28 170 -75
259 -164 181 -182 281 -430 283 -700 1 -200 -53 -341 -174 -455 -115 -108
-220 -149 -384 -149 l-100 0 -48 36 c-49 38 -100 58 -151 58 l-29 0 6 148 c4
81 7 375 7 654 l0 507 45 27 c94 54 187 67 286 38z m-1082 -27 c11 -19 34 -51
50 -71 29 -36 29 -39 15 -62 -9 -13 -20 -21 -25 -18 -5 3 -8 2 -7 -3 1 -4 -18
-39 -43 -78 -25 -38 -54 -82 -63 -98 l-17 -27 -35 46 -35 46 58 75 c89 115 88
113 69 113 -25 0 -105 -78 -136 -133 -15 -27 -30 -44 -34 -39 -7 12 51 89 136
181 33 34 57 65 54 68 -3 3 -21 -4 -41 -16 -49 -29 -51 -27 -14 14 18 19 36
35 40 35 4 0 17 -15 28 -33z m1406 24 c3 -5 2 -12 -3 -15 -5 -3 -9 1 -9 9 0
17 3 19 12 6z m-1331 -12 c3 -3 -4 -5 -14 -6 -11 -1 -22 2 -24 6 -5 8 30 8 38
0z m139 -4 c-3 -9 -8 -14 -10 -11 -3 3 -2 9 2 15 9 16 15 13 8 -4z m1082 -14
c-3 -6 3 -14 12 -20 10 -6 13 -11 7 -11 -15 0 -36 25 -27 33 10 10 15 8 8 -2z
m-1215 -36 c0 -5 -5 -3 -10 5 -5 8 -10 20 -10 25 0 6 5 3 10 -5 5 -8 10 -19
10 -25z m60 -8 c0 -2 -8 -11 -18 -20 -15 -14 -19 -15 -19 -2 0 8 4 12 8 9 4
-2 10 0 14 6 6 10 15 14 15 7z m-380 -167 c-6 -12 -14 -20 -17 -17 -2 3 1 14
8 26 17 26 24 19 9 -9z m2015 -40 c3 -5 1 -10 -4 -10 -6 0 -11 5 -11 10 0 6 2
10 4 10 3 0 8 -4 11 -10z m-1977 -51 c25 -13 54 -37 69 -61 l26 -39 -32 -93
c-154 -447 -8 -838 359 -962 41 -14 85 -19 172 -19 l116 0 6 -28 c8 -39 56
-82 111 -98 25 -7 44 -18 42 -23 -5 -16 -119 -75 -185 -96 -199 -62 -410 -40
-578 61 -126 77 -248 231 -299 380 -25 74 -28 98 -28 204 0 101 4 134 27 210
27 91 79 195 146 295 54 81 57 88 19 53 -38 -36 -79 -44 -79 -16 0 9 21 37 48
61 38 36 42 43 22 37 -63 -18 -106 -68 -96 -110 4 -14 15 -29 26 -33 17 -7 17
-9 -10 -47 -16 -22 -37 -56 -46 -75 -10 -19 -21 -37 -24 -40 -4 -3 -22 -50
-40 -105 -32 -95 -34 -107 -33 -235 0 -74 0 -274 1 -445 1 -428 20 -601 77
-687 29 -44 127 -95 245 -127 84 -23 349 -71 540 -97 176 -25 614 -25 790 0
390 54 586 116 648 203 52 73 69 215 78 658 5 201 10 283 21 320 16 50 26 318
12 309 -4 -2 -9 11 -12 29 -8 51 -44 138 -82 201 -38 63 -41 71 -23 60 6 -4 8
-3 5 3 -4 6 0 16 8 23 33 27 9 87 -45 115 -49 25 -53 17 -10 -23 39 -38 51
-74 29 -88 -6 -3 -30 12 -53 35 -23 22 -45 41 -49 41 -4 0 13 -28 38 -61 132
-180 186 -415 139 -608 -36 -147 -147 -324 -256 -409 -116 -89 -249 -133 -408
-133 -158 -1 -320 43 -425 114 l-36 24 48 12 c66 17 119 54 133 93 l12 33 107
0 c176 1 299 51 417 169 181 181 230 454 138 772 -14 48 -23 97 -20 108 7 27
61 83 99 102 73 39 194 5 248 -69 54 -74 48 -170 -13 -207 -18 -10 -33 -27
-34 -36 -2 -12 0 -14 9 -5 6 6 22 11 35 11 34 0 25 -34 -11 -38 -41 -5 -32
-22 12 -22 22 0 44 6 51 15 12 14 11 23 -4 70 -8 24 72 -130 86 -165 9 -25 9
-25 -21 4 -17 16 -33 27 -37 24 -3 -4 7 -35 21 -70 63 -147 95 -237 111 -308
9 -41 19 -77 21 -80 8 -9 23 25 23 54 0 51 10 23 35 -103 30 -149 31 -168 4
-114 -13 27 -25 40 -34 37 -8 -3 -12 -11 -10 -17 2 -7 9 -80 14 -162 10 -141
4 -286 -15 -398 -5 -30 -4 -37 10 -37 9 0 15 3 14 8 -1 4 11 32 26 62 l27 55
-6 -57 c-7 -65 -56 -256 -79 -308 l-15 -35 6 58 c4 35 2 57 -4 57 -6 0 -31
-42 -58 -92 -66 -129 -157 -256 -221 -312 -41 -34 -43 -50 -7 -43 l27 5 -25
-19 c-42 -33 -190 -102 -219 -103 -15 -1 -26 -4 -24 -8 9 -14 -186 -48 -275
-48 l-66 0 35 20 c19 10 43 22 53 26 9 3 17 13 17 20 0 13 13 19 33 15 5 -1 6
3 3 8 -9 13 -42 6 -111 -23 -33 -14 -66 -26 -72 -26 -7 0 -34 15 -60 34 -163
116 -404 173 -560 133 -66 -17 -172 -67 -237 -112 -46 -31 -66 -30 -157 11
-33 15 -62 25 -64 22 -12 -12 10 -40 49 -64 l41 -26 -105 6 c-263 13 -530 101
-663 218 -24 22 -26 25 -7 15 34 -20 70 -30 70 -20 0 4 -30 40 -66 78 -98 106
-202 264 -187 288 3 5 2 7 -3 4 -6 -3 -20 15 -34 39 -26 49 -44 43 -35 -11 11
-68 -26 53 -45 146 -26 125 -25 135 5 72 13 -29 29 -53 35 -53 7 0 8 17 4 53
-12 86 -10 263 5 412 8 78 12 147 9 155 -3 9 -14 -2 -31 -30 -15 -25 -27 -40
-27 -35 0 31 34 175 42 175 5 0 7 4 4 9 -3 4 1 28 8 52 l14 44 1 -35 c1 -37
15 -68 24 -54 2 5 8 24 12 42 3 18 11 30 16 27 5 -4 6 1 3 9 -5 14 24 122 31
114 1 -2 -2 -33 -8 -70 -7 -46 -7 -75 0 -90 9 -20 12 -15 33 47 12 39 40 113
61 167 22 53 39 101 39 107 0 20 -28 0 -56 -40 -15 -22 -29 -37 -31 -35 -2 2
14 41 37 86 23 45 39 84 37 86 -9 10 -57 -20 -63 -38 -3 -11 -8 -17 -11 -14
-3 2 12 37 33 75 24 45 42 67 48 61 6 -6 4 -16 -5 -26 -8 -10 -9 -15 -3 -11 7
4 14 -2 17 -13 4 -16 14 -20 45 -20 23 0 44 5 47 10 3 6 -3 10 -14 10 -26 0
-51 10 -51 20 0 5 17 6 38 3 l37 -5 -41 26 c-28 17 -47 39 -58 66 -22 56 -21
137 3 176 59 96 209 141 309 93z m-427 -646 c-12 -20 -14 -14 -5 12 4 9 9 14
11 11 3 -2 0 -13 -6 -23z m1477 -442 c88 -45 106 -106 43 -148 -95 -64 -264
-55 -326 19 -33 39 -32 60 5 96 27 27 54 40 115 56 36 9 126 -4 163 -23z
m-1137 -171 c26 -30 77 -77 113 -104 l66 -48 0 -119 c0 -66 -4 -119 -9 -119
-26 0 -184 76 -196 94 -18 28 -52 156 -61 229 -3 31 -3 83 1 115 7 57 7 57 24
32 9 -13 37 -49 62 -80z m2133 -65 c-7 -82 -41 -221 -67 -274 -19 -39 -29 -47
-73 -62 -28 -9 -65 -20 -82 -24 l-32 -7 0 136 c0 124 2 136 20 146 46 24 138
111 180 169 l45 62 7 -43 c4 -24 5 -70 2 -103z m-957 -106 c68 -31 180 -64
256 -74 l48 -6 -3 -127 -3 -127 -50 -6 c-27 -4 -127 -10 -220 -14 l-171 -8 -1
164 c-1 90 -5 194 -8 232 l-7 69 48 -38 c27 -20 77 -50 111 -65z m-181 -356
c-3 -4 -209 11 -319 23 -84 10 -87 15 -87 148 l0 113 84 16 c99 20 189 56 266
108 l55 37 3 -221 c1 -121 1 -222 -2 -224z m-630 307 c43 -11 106 -20 142 -20
l65 0 -7 -52 c-3 -29 -6 -85 -6 -124 l0 -71 -92 19 c-140 28 -249 59 -253 72
-2 6 -6 61 -9 123 l-5 112 44 -20 c24 -11 79 -29 121 -39z m1488 -87 c-4 -71
-12 -131 -17 -135 -11 -7 -193 -42 -279 -54 l-48 -6 0 126 0 126 53 0 c66 0
173 23 229 49 72 33 70 36 62 -106z m-1789 -63 c50 -22 95 -40 102 -40 7 0 14
-22 17 -52 22 -211 28 -264 32 -270 8 -13 -13 -9 -78 13 -103 34 -178 77 -189
107 -25 64 -10 282 20 282 4 0 47 -18 96 -40z m2011 -70 c7 -19 13 -72 13
-116 1 -81 1 -82 -34 -112 -31 -28 -191 -90 -202 -78 -3 3 26 290 30 292 38
16 156 52 166 51 8 -1 20 -18 27 -37z m-1568 -65 c29 -4 55 -12 57 -19 1 -6 8
-63 14 -127 7 -63 15 -126 18 -139 6 -23 5 -23 -53 -16 -53 6 -306 54 -310 59
-1 1 -5 72 -9 158 l-8 156 119 -32 c66 -18 143 -36 172 -40z m1329 -107 c-5
-79 -9 -144 -11 -145 -2 -3 -253 -48 -312 -57 l-41 -6 13 78 c6 42 15 107 19
144 l6 66 72 12 c40 6 106 20 147 30 127 30 116 42 107 -122z m-1112 73 c44
-6 124 -13 178 -17 l97 -7 0 -56 c0 -31 3 -94 7 -140 l6 -84 -144 6 c-79 4
-167 10 -195 13 l-52 7 -6 56 c-3 31 -9 98 -12 149 l-7 93 24 -5 c13 -3 60
-10 104 -15z m751 -28 c-3 -16 -8 -73 -11 -129 -4 -56 -10 -107 -15 -114 -10
-17 -133 -29 -299 -29 l-133 -1 6 23 c3 12 6 75 6 140 l0 117 113 1 c61 1 144
5 182 9 39 4 89 8 113 8 42 2 43 1 38 -25z m-1535 -520 c-8 -15 -10 -15 -11
-2 0 17 10 32 18 25 2 -3 -1 -13 -7 -23z m134 -24 c91 -29 216 -48 362 -55
l131 -7 -66 -65 c-37 -36 -71 -64 -77 -63 -5 2 -7 -1 -2 -5 9 -9 -23 -45 -34
-38 -5 3 -6 -2 -3 -10 3 -9 2 -16 -3 -16 -16 0 -44 36 -36 45 5 4 3 5 -3 2 -6
-4 -22 6 -36 21 -71 78 -166 140 -264 172 -41 14 -64 27 -64 37 0 11 5 13 18
8 9 -4 44 -16 77 -26z m2015 -54 c0 -5 -5 -3 -10 5 -5 8 -10 20 -10 25 0 6 5
3 10 -5 5 -8 10 -19 10 -25z"/>
<path d="M1880 1951 c-14 -27 -13 -114 2 -129 21 -21 36 -13 48 24 24 71 -19
162 -50 105z"/>
<path d="M2841 2883 c12 -21 29 -50 38 -65 18 -31 31 -36 31 -12 0 22 -18 54
-48 87 -37 39 -48 33 -21 -10z"/>
<path d="M2050 1944 c-21 -55 -6 -134 25 -134 21 0 35 33 35 80 0 73 -40 109
-60 54z"/>
<path d="M1177 2916 c-29 -27 -63 -94 -53 -104 3 -3 7 -3 9 -1 77 103 98 155
44 105z"/>
<path d="M1003 2752 c-10 -6 -10 -12 2 -28 15 -19 15 -19 30 0 22 29 0 48 -32
28z"/>
<path d="M850 2725 c0 -26 15 -32 40 -15 13 9 12 12 -4 25 -28 21 -36 19 -36
-10z"/>
<path d="M2960 2716 c0 -7 7 -20 16 -27 14 -11 18 -10 30 5 7 11 11 23 8 27
-9 15 -54 10 -54 -5z"/>
<path d="M3112 2673 c2 -10 10 -18 18 -18 8 0 16 8 18 18 2 12 -3 17 -18 17
-15 0 -20 -5 -18 -17z"/>
<path d="M780 2586 c0 -8 5 -18 10 -21 13 -8 42 14 34 26 -9 15 -44 10 -44 -5z"/>
<path d="M3162 2570 c7 -11 16 -20 20 -20 4 0 12 9 18 20 10 18 8 20 -20 20
-28 0 -29 -2 -18 -20z"/>
<path d="M3260 2242 c0 -5 15 -51 34 -103 19 -52 42 -121 51 -154 26 -94 25
-92 35 -75 29 46 -6 200 -65 288 -32 47 -55 65 -55 44z"/>
<path d="M711 2154 c-29 -36 -45 -102 -33 -128 8 -17 11 -18 15 -6 59 163 63
191 18 134z"/>
<path d="M3260 2125 c0 -11 11 -54 24 -95 22 -70 24 -73 31 -46 10 38 -9 114
-36 141 -19 19 -19 19 -19 0z"/>
<path d="M547 1667 c-53 -110 -46 -350 12 -426 18 -23 18 -18 19 218 0 132 -3
241 -7 241 -5 0 -16 -15 -24 -33z"/>
<path d="M3397 1477 c-4 -100 -10 -207 -13 -237 l-7 -55 21 19 c34 30 53 102
59 221 4 96 2 117 -17 167 -12 32 -25 60 -29 62 -4 3 -11 -77 -14 -177z"/>
<path d="M602 1545 c-26 -56 -5 -205 29 -205 6 0 8 7 5 16 -3 9 -6 60 -6 115
0 100 -7 120 -28 74z"/>
<path d="M3346 1519 c-10 -32 -15 -219 -6 -214 27 17 42 70 38 136 -3 66 -22
110 -32 78z"/>
<path d="M600 1003 c1 -37 39 -130 75 -179 38 -52 111 -121 135 -129 11 -4 20
-10 20 -15 0 -4 9 -6 20 -3 19 5 19 6 4 18 -11 7 -14 17 -9 25 5 8 4 11 -3 6
-11 -7 -79 80 -170 216 -60 90 -72 100 -72 61z"/>
<path d="M705 923 c11 -44 54 -101 92 -121 45 -25 41 -9 -18 68 -63 83 -86
100 -74 53z"/>
<path d="M3300 898 c-16 -24 -34 -48 -40 -55 -5 -7 -10 -16 -10 -21 0 -5 -7
-16 -17 -23 -15 -13 -15 -12 -4 9 7 13 11 33 9 45 -2 18 -14 7 -66 -60 -61
-81 -65 -107 -8 -62 15 12 30 19 33 15 4 -3 1 -6 -5 -6 -7 0 -12 -6 -12 -14 0
-8 -11 -23 -25 -34 -14 -11 -25 -24 -25 -29 0 -6 -9 -18 -20 -28 -26 -24 -25
-37 3 -33 71 10 212 192 231 301 9 50 -6 48 -44 -5z"/>
<path d="M1887 224 c-26 -8 -10 -24 24 -24 73 0 144 -61 176 -150 18 -50 33
-59 62 -41 11 7 11 15 2 42 l-12 34 39 -38 c33 -32 43 -37 67 -31 25 6 26 8
12 19 -9 7 -14 15 -10 18 3 4 0 7 -8 7 -23 0 -83 66 -74 81 5 7 4 10 -2 6 -6
-4 -21 3 -34 14 -43 38 -99 60 -162 64 -34 2 -70 2 -80 -1z"/>
</g>
</svg>
